<?xml version="1.0" encoding="UTF-8" standalone="no"?>
<svg width="1757px" height="1182px" viewBox="0 0 1757 1182" version="1.1" xmlns="http://www.w3.org/2000/svg" xmlns:xlink="http://www.w3.org/1999/xlink" xmlns:sketch="http://www.bohemiancoding.com/sketch/ns">
    <!-- Generator: Sketch 3.0.4 (8053) - http://www.bohemiancoding.com/sketch -->
    <title>Imported Layers</title>
    <desc>Created with Sketch.</desc>
    <defs>
        <path d="M6,13.0015769 L6,13.0015769 C6,9.14124803 9.13880126,6 13,6 C16.8611987,6 20,9.14124803 20,13.0015769 C20,16.8619058 16.8611987,20 13,20 C9.13880126,20 6,16.8619058 6,13.0015769 M13,0 C5.8205736,0 0,5.82296481 0,13.0015405 C0,20.1831971 5.8205736,26 13,26 C20.1763451,26 26,20.1831971 26,13.0015405 C26,5.82296481 20.1763451,0 13,0" id="path-1"></path>
    </defs>
    <g id="Page-1" stroke="none" stroke-width="1" fill="none" fill-rule="evenodd" sketch:type="MSPage">
        <g id="Landscape-Retina" sketch:type="MSArtboardGroup" transform="translate(-146.000000, -284.000000)">
            <g id="Imported-Layers" sketch:type="MSLayerGroup" transform="translate(146.000000, 284.000000)">
                <path d="M1757,76.9144286 L1757,1108.10088 C1757,1149.74527 1721.92027,1182 1680.50872,1182 L73.4775592,1182 C32.0660034,1182 0,1149.74527 0,1108.10088 L0,76.9144286 C0,35.2700357 32.0660034,0 73.4775592,0 L1680.50872,0 C1721.92027,0 1757,35.2700357 1757,76.9144286 Z" id="Fill-1" fill="#CBCCCB" sketch:type="MSShapeGroup"></path>
                <path d="M1749,83.9144286 L1749,1100.10088 C1749,1143.74527 1721.92027,1174 1672.50872,1174 L81.4775592,1174 C34.0660034,1174 8,1146.74527 8,1100.10088 L8,83.9144286 C8,38.2700357 38.0660034,7 81.4775592,7 L1672.50872,7 C1722,7 1749,46 1749,83.9144286 Z" id="Fill-6" fill="#F8F8F8" sketch:type="MSShapeGroup"></path>
                <path d="M1585.98511,1121 L175.014894,1121 C173.350672,1121 172,1119.64965 172,1117.98584 L172,60.0141643 C172,58.3503456 173.350672,57 175.014894,57 L1585.98511,57 C1587.64933,57 1589,58.3503456 1589,60.0141643 L1589,1117.98584 C1589,1119.64965 1587.64933,1121 1585.98511,1121 Z" id="Fill-3" fill="#171816" sketch:type="MSShapeGroup"></path>
                <path d="M1669.50303,546.034368 L1669.50303,549.068736 C1680.95401,549.068736 1691.29144,553.702217 1698.79799,561.203175 C1706.3015,568.710202 1710.93165,579.048294 1710.93165,590.496966 C1710.93165,601.951706 1706.3015,612.289798 1698.79799,619.796825 C1691.29144,627.300818 1680.95401,631.931264 1669.50303,631.934298 C1658.04903,631.931264 1647.70856,627.300818 1640.20201,619.796825 C1632.70153,612.289798 1628.07138,601.951706 1628.06835,590.496966 C1628.07138,579.048294 1632.70153,568.710202 1640.20201,561.203175 C1647.70856,553.702217 1658.04903,549.068736 1669.50303,549.068736 L1669.50303,543 C1643.26349,543 1622,564.264852 1622,590.496966 C1622,616.735148 1643.26349,638 1669.50303,638 C1695.73954,638 1717,616.735148 1717,590.496966 C1717,564.264852 1695.73651,543 1669.50303,543 L1669.50303,546.034368" id="Fill-4" fill="#CBCCCB" sketch:type="MSShapeGroup"></path>
                <g id="Group-7" transform="translate(79.000000, 579.000000)">
                    <mask id="mask-2" sketch:name="Clip 6" fill="white">
                        <use xlink:href="#path-1"></use>
                    </mask>
                    <g id="Clip-6"></g>
                    <path d="M6,13.0015769 L6,13.0015769 C6,9.14124803 9.13880126,6 13,6 C16.8611987,6 20,9.14124803 20,13.0015769 C20,16.8619058 16.8611987,20 13,20 C9.13880126,20 6,16.8619058 6,13.0015769 M13,0 C5.8205736,0 0,5.82296481 0,13.0015405 C0,20.1831971 5.8205736,26 13,26 C20.1763451,26 26,20.1831971 26,13.0015405 C26,5.82296481 20.1763451,0 13,0" id="Fill-5" sketch:type="MSShapeGroup" mask="url(#mask-2)"></path>
                </g>
                <path d="M101,590.502365 C101,596.292859 96.2917981,601 90.5,601 C84.7082019,601 80,596.292859 80,590.502365 C80,584.711872 84.7082019,580 90.5,580 C96.2917981,580 101,584.711872 101,590.502365" id="Fill-8" fill="#000000" sketch:type="MSShapeGroup"></path>
            </g>
        </g>
    </g>
</svg>